<svg xmlns="http://www.w3.org/2000/svg" viewBox="0 0 1200 720" role="img" aria-labelledby="title desc">
  <title id="title">Conceptual connected public service systems</title>
  <desc id="desc">Abstract service terminals, records, and access devices connected through a central workflow.</desc>
  <rect width="1200" height="720" fill="#18201c"/>
  <g fill="#e9eeea">
    <rect x="94" y="132" width="244" height="184" rx="8"/>
    <rect x="94" y="404" width="244" height="184" rx="8"/>
    <rect x="862" y="132" width="244" height="184" rx="8"/>
    <rect x="862" y="404" width="244" height="184" rx="8"/>
  </g>
  <rect x="446" y="220" width="308" height="280" rx="18" fill="#1f5f8b"/>
  <g fill="none" stroke="#7eb7de" stroke-width="4">
    <path d="M338 224h108M338 496h108M754 224h108M754 496h108"/>
    <circle cx="392" cy="224" r="9" fill="#7eb7de"/>
    <circle cx="392" cy="496" r="9" fill="#7eb7de"/>
    <circle cx="808" cy="224" r="9" fill="#7eb7de"/>
    <circle cx="808" cy="496" r="9" fill="#7eb7de"/>
  </g>
  <g fill="#cfd6d1">
    <rect x="132" y="176" width="156" height="13" rx="6"/>
    <rect x="132" y="216" width="112" height="13" rx="6"/>
    <rect x="132" y="448" width="156" height="13" rx="6"/>
    <rect x="132" y="488" width="84" height="13" rx="6"/>
    <rect x="900" y="176" width="156" height="13" rx="6"/>
    <rect x="900" y="216" width="98" height="13" rx="6"/>
    <rect x="900" y="448" width="156" height="13" rx="6"/>
    <rect x="900" y="488" width="126" height="13" rx="6"/>
  </g>
  <g fill="none" stroke="#e9eeea" stroke-width="4">
    <rect x="518" y="282" width="164" height="112" rx="8"/>
    <path d="M550 426h100M570 450h60"/>
    <path d="M582 320h36M600 302v36"/>
  </g>
</svg>
