<svg xmlns="http://www.w3.org/2000/svg" viewBox="0 0 1200 720" role="img" aria-labelledby="title desc">
  <title id="title">Conceptual offline property application</title>
  <desc id="desc">Abstract building records connected to a local application and backup copy.</desc>
  <rect width="1200" height="720" fill="#18201c"/>
  <rect x="96" y="86" width="664" height="548" rx="12" fill="#e9eeea"/>
  <rect x="96" y="86" width="664" height="58" rx="12" fill="#cfd6d1"/>
  <circle cx="132" cy="115" r="8" fill="#1f5f8b"/>
  <circle cx="162" cy="115" r="8" fill="#5b6660"/>
  <g fill="#cfd6d1">
    <rect x="142" y="190" width="174" height="168" rx="6"/>
    <rect x="340" y="190" width="174" height="168" rx="6"/>
    <rect x="538" y="190" width="174" height="168" rx="6"/>
    <rect x="142" y="382" width="174" height="168" rx="6"/>
    <rect x="340" y="382" width="174" height="168" rx="6"/>
    <rect x="538" y="382" width="174" height="168" rx="6"/>
  </g>
  <g fill="#1f5f8b">
    <rect x="168" y="218" width="76" height="12" rx="6"/>
    <rect x="366" y="218" width="90" height="12" rx="6"/>
    <rect x="564" y="218" width="64" height="12" rx="6"/>
    <rect x="168" y="410" width="92" height="12" rx="6"/>
    <rect x="366" y="410" width="70" height="12" rx="6"/>
    <rect x="564" y="410" width="98" height="12" rx="6"/>
  </g>
  <g fill="none" stroke="#7eb7de" stroke-width="4">
    <path d="M760 360h132"/>
    <path d="m866 336 26 24-26 24"/>
    <path d="M898 458h164a48 48 0 0 0 6-95 82 82 0 0 0-158-26 62 62 0 0 0-12 121Z"/>
  </g>
  <circle cx="916" cy="360" r="9" fill="#7eb7de"/>
</svg>
