<svg xmlns="http://www.w3.org/2000/svg" viewBox="0 0 1200 720" role="img" aria-labelledby="title desc">
  <title id="title">Conceptual connected game platform</title>
  <desc id="desc">Abstract screens and player-service nodes connected through a shared platform.</desc>
  <rect width="1200" height="720" fill="#111714"/>
  <g fill="none" stroke="#34413a" stroke-width="1">
    <path d="M0 120h1200M0 240h1200M0 360h1200M0 480h1200M0 600h1200"/>
    <path d="M200 0v720M400 0v720M600 0v720M800 0v720M1000 0v720"/>
  </g>
  <g fill="#19221d" stroke="#7eb7de" stroke-width="3">
    <rect x="92" y="142" width="252" height="392" rx="10"/>
    <rect x="856" y="190" width="252" height="312" rx="10"/>
    <rect x="458" y="258" width="284" height="204" rx="16"/>
  </g>
  <g fill="#7eb7de">
    <circle cx="218" cy="264" r="34"/>
    <circle cx="982" cy="296" r="34"/>
    <circle cx="538" cy="360" r="11"/>
    <circle cx="600" cy="360" r="11"/>
    <circle cx="662" cy="360" r="11"/>
  </g>
  <g fill="none" stroke="#a5b0a9" stroke-width="3">
    <path d="M252 264C390 264 392 328 458 328"/>
    <path d="M742 392c72 0 104-96 206-96"/>
    <path d="M600 258V146h262"/>
    <path d="M600 462v112H338"/>
  </g>
  <g fill="#a5b0a9">
    <rect x="150" y="362" width="136" height="12" rx="6"/>
    <rect x="150" y="398" width="92" height="12" rx="6"/>
    <rect x="914" y="388" width="136" height="12" rx="6"/>
    <rect x="914" y="424" width="92" height="12" rx="6"/>
  </g>
</svg>
